<svg id="visual" viewBox="0 0 900 600" width="900" height="600" xmlns="http://www.w3.org/2000/svg" xmlns:xlink="http://www.w3.org/1999/xlink" version="1.1"><path d="M0 169L82 151L164 169L245 175L327 109L409 229L491 91L573 271L655 205L736 175L818 199L900 151L900 0L818 0L736 0L655 0L573 0L491 0L409 0L327 0L245 0L164 0L82 0L0 0Z" fill="#00cc8e"></path><path d="M0 223L82 199L164 229L245 277L327 163L409 295L491 157L573 319L655 325L736 247L818 307L900 247L900 149L818 197L736 173L655 203L573 269L491 89L409 227L327 107L245 173L164 167L82 149L0 167Z" fill="#00b98a"></path><path d="M0 271L82 271L164 313L245 319L327 247L409 385L491 241L573 421L655 415L736 301L818 355L900 331L900 245L818 305L736 245L655 323L573 317L491 155L409 293L327 161L245 275L164 227L82 197L0 221Z" fill="#00a784"></path><path d="M0 373L82 439L164 391L245 403L327 331L409 523L491 385L573 511L655 511L736 445L818 433L900 433L900 329L818 353L736 299L655 413L573 419L491 239L409 383L327 245L245 317L164 311L82 269L0 269Z" fill="#00957c"></path><path d="M0 601L82 601L164 601L245 601L327 601L409 601L491 601L573 601L655 601L736 601L818 601L900 601L900 431L818 431L736 443L655 509L573 509L491 383L409 521L327 329L245 401L164 389L82 437L0 371Z" fill="#038373"></path></svg>